<svg version="1.1" id="Layer_1" xmlns="http://www.w3.org/2000/svg" xmlns:xlink="http://www.w3.org/1999/xlink" x="0px" y="0px"
	 width="100%" viewBox="0 0 194 194" enable-background="new 0 0 194 194" xml:space="preserve">
<path fill="#404456" opacity="1.000000" stroke="none" 
	d="
M88.000000,195.000000 
	C84.307091,195.000000 80.614182,195.000000 76.505974,194.650970 
	C74.672386,192.946716 73.141838,191.689972 71.853386,190.220901 
	C60.538162,177.319458 49.300785,164.349670 37.970955,151.461136 
	C27.721270,139.801376 17.433821,128.173660 7.036332,116.646080 
	C5.363462,114.791405 3.028762,113.533676 1.000000,112.000000 
	C1.000000,107.975456 1.000000,103.950912 1.349312,99.529167 
	C15.741891,86.840942 29.785158,74.549919 43.911797,62.185928 
	C42.760494,59.040207 41.693840,56.100922 40.608974,53.168373 
	C39.460556,50.064045 38.266537,46.976345 37.142082,43.863445 
	C34.098625,35.438015 36.735989,29.074289 45.083881,25.949942 
	C61.337189,19.866854 77.768173,14.251202 93.941681,7.968557 
	C97.059624,6.757385 99.335609,3.378757 102.000000,0.999999 
	C130.687561,1.000000 159.375122,1.000000 188.472122,1.352507 
	C190.921036,3.470009 192.960526,5.235004 195.000000,7.000000 
	C195.000000,54.020893 195.000000,101.041786 194.646439,148.467621 
	C189.083191,155.017685 182.127518,155.264450 174.800278,155.047043 
	C164.981750,154.755692 155.104980,154.404495 145.333481,155.142151 
	C136.267166,155.826584 127.607597,158.519547 120.503029,164.900879 
	C113.730927,170.983551 106.590813,176.658340 99.858932,182.783325 
	C95.669220,186.595352 91.937363,190.910599 88.000000,195.000000 
M41.362202,76.243629 
	C31.946045,84.462151 22.527567,92.678009 13.114705,100.900307 
	C8.389850,105.027550 8.380800,105.126373 12.645764,109.927559 
	C32.678165,132.478592 52.613304,155.117264 72.795929,177.533066 
	C82.698700,188.531555 79.097595,189.739563 92.572968,177.649368 
	C95.371529,175.077881 98.170090,172.506409 101.955147,169.028473 
	C86.829613,172.365295 83.956238,170.733002 79.095352,157.264481 
	C69.371185,130.320847 59.650223,103.376060 49.912712,76.437248 
	C49.273968,74.670166 48.506332,72.949661 47.603050,70.725983 
	C45.337223,72.831451 43.652740,74.396729 41.362202,76.243629 
M101.749390,159.941483 
	C105.879066,158.373978 110.008743,156.806488 114.138428,155.238983 
	C98.819275,153.532944 96.400291,150.953293 96.399971,135.877014 
	C96.399170,98.241882 96.403305,60.606750 96.388809,22.971624 
	C96.388077,21.078806 96.230469,19.186049 96.116539,16.635817 
	C93.900734,17.650990 92.438438,18.320942 90.216293,18.988615 
	C77.073631,23.689716 63.925976,28.376945 50.790413,33.097809 
	C44.286877,35.435150 43.907707,36.308506 46.323982,42.998451 
	C59.648720,79.890770 72.977715,116.781540 86.307297,153.672104 
	C90.255508,164.599060 90.337151,164.631561 101.749390,159.941483 
M186.614944,15.066902 
	C186.767395,10.473139 183.984619,9.637390 180.116043,9.649303 
	C157.120224,9.720122 134.124084,9.667609 111.128082,9.695582 
	C105.317963,9.702650 104.457146,10.554183 104.453896,16.370905 
	C104.430939,57.363815 104.431648,98.356750 104.451424,139.349670 
	C104.454346,145.408295 105.258743,146.163818 111.477638,146.168701 
	C133.973740,146.186356 156.469864,146.181961 178.965988,146.172745 
	C186.077759,146.169846 186.619263,145.629440 186.620529,138.456650 
	C186.627701,97.630363 186.622437,56.804081 186.614944,15.066902 
z"/>
<path fill="#000000" opacity="1.000000" stroke="none" 
	d="
M101.531342,0.999999 
	C99.335609,3.378757 97.059624,6.757385 93.941681,7.968557 
	C77.768173,14.251202 61.337189,19.866854 45.083881,25.949942 
	C36.735989,29.074289 34.098625,35.438015 37.142082,43.863445 
	C38.266537,46.976345 39.460556,50.064045 40.608974,53.168373 
	C41.693840,56.100922 42.760494,59.040207 43.911797,62.185928 
	C29.785158,74.549919 15.741891,86.840942 1.349312,99.065979 
	C1.000000,66.405296 1.000000,33.810593 1.000000,1.000000 
	C34.353916,1.000000 67.708298,1.000000 101.531342,0.999999 
z"/>
<path fill="#000000" opacity="1.000000" stroke="none" 
	d="
M88.468658,195.000000 
	C91.937363,190.910599 95.669220,186.595352 99.858932,182.783325 
	C106.590813,176.658340 113.730927,170.983551 120.503029,164.900879 
	C127.607597,158.519547 136.267166,155.826584 145.333481,155.142151 
	C155.104980,154.404495 164.981750,154.755692 174.800278,155.047043 
	C182.127518,155.264450 189.083191,155.017685 194.646439,148.936279 
	C195.000000,164.289368 195.000000,179.578720 195.000000,195.000000 
	C159.645874,195.000000 124.291595,195.000000 88.468658,195.000000 
z"/>
<path fill="#000000" opacity="1.000000" stroke="none" 
	d="
M1.000000,112.468658 
	C3.028762,113.533676 5.363462,114.791405 7.036332,116.646080 
	C17.433821,128.173660 27.721270,139.801376 37.970955,151.461136 
	C49.300785,164.349670 60.538162,177.319458 71.853386,190.220901 
	C73.141838,191.689972 74.672386,192.946716 76.045334,194.650970 
	C51.069412,195.000000 26.138823,195.000000 1.000000,195.000000 
	C1.000000,167.646118 1.000000,140.291718 1.000000,112.468658 
z"/>
<path fill="#000000" opacity="1.000000" stroke="none" 
	d="
M195.000000,6.500528 
	C192.960526,5.235004 190.921036,3.470009 188.940781,1.352507 
	C190.913223,1.000000 192.826462,1.000000 195.000000,1.000000 
	C195.000000,2.663430 195.000000,4.332244 195.000000,6.500528 
z"/>
<path fill="#ECECED" opacity="1.000000" stroke="none" 
	d="
M186.618164,15.522349 
	C186.622437,56.804081 186.627701,97.630363 186.620529,138.456650 
	C186.619263,145.629440 186.077759,146.169846 178.965988,146.172745 
	C156.469864,146.181961 133.973740,146.186356 111.477638,146.168701 
	C105.258743,146.163818 104.454346,145.408295 104.451424,139.349670 
	C104.431648,98.356750 104.430939,57.363815 104.453896,16.370905 
	C104.457146,10.554183 105.317963,9.702650 111.128082,9.695582 
	C134.124084,9.667609 157.120224,9.720122 180.116043,9.649303 
	C183.984619,9.637390 186.767395,10.473139 186.618164,15.522349 
M150.816483,55.029655 
	C149.069748,55.979282 147.322998,56.928905 145.576080,57.878181 
	C136.230103,52.651440 128.500092,53.728153 123.120728,61.005981 
	C117.907837,68.058586 119.053474,76.711380 126.192184,83.901520 
	C131.355286,89.101799 136.584824,94.236359 141.725586,99.458443 
	C144.147110,101.918259 146.520752,102.262764 149.052689,99.722794 
	C155.048965,93.707466 161.206467,87.841446 166.981827,81.620804 
	C171.918045,76.304016 172.471909,68.699905 168.958878,62.577545 
	C165.396149,56.368530 158.966980,53.497536 150.816483,55.029655 
z"/>
<path fill="#ECECEC" opacity="1.000000" stroke="none" 
	d="
M101.012550,159.956787 
	C90.337151,164.631561 90.255508,164.599060 86.307297,153.672104 
	C72.977715,116.781540 59.648720,79.890770 46.323982,42.998451 
	C43.907707,36.308506 44.286877,35.435150 50.790413,33.097809 
	C63.925976,28.376945 77.073631,23.689716 90.587631,19.458660 
	C90.957550,25.880056 91.096603,31.836809 90.868217,37.779438 
	C90.800636,39.537941 89.697151,41.256634 88.698303,42.901207 
	C82.949593,40.074383 77.602623,37.274532 72.173203,34.644909 
	C70.523117,33.845730 68.258720,32.644512 66.978874,33.212345 
	C65.649261,33.802258 64.990242,36.245377 64.354713,37.993248 
	C62.514694,43.053741 61.151157,48.311882 58.988064,53.222633 
	C57.315395,57.019997 57.975742,58.682316 61.821838,60.332710 
	C66.759171,62.451366 71.353569,65.358871 76.154373,67.811714 
	C77.808670,68.656929 80.189194,70.158356 81.254807,69.572319 
	C82.712051,68.770905 83.766914,66.344254 84.052429,64.470734 
	C84.965652,58.478230 86.118912,52.685501 90.646187,48.679462 
	C90.787315,77.152779 91.148895,105.110512 90.811470,133.059814 
	C90.687698,143.311798 91.139694,152.710251 100.619995,159.055130 
	C100.849297,159.208572 100.886009,159.649796 101.012550,159.956787 
z"/>
<path fill="#ECECEC" opacity="1.000000" stroke="none" 
	d="
M91.955467,177.888107 
	C79.097595,189.739563 82.698700,188.531555 72.795929,177.533066 
	C52.613304,155.117264 32.678165,132.478592 12.645764,109.927559 
	C8.380800,105.126373 8.389850,105.027550 13.114705,100.900307 
	C22.527567,92.678009 31.946045,84.462151 41.983376,76.241638 
	C43.858467,78.709702 45.388161,81.079964 46.323765,83.665215 
	C55.983990,110.358200 65.556992,137.082779 75.132553,163.806351 
	C77.291313,169.831055 81.332893,173.888290 87.390190,175.978897 
	C88.946243,176.515961 90.435516,177.246475 91.955467,177.888107 
M48.006607,101.702415 
	C46.138920,97.410492 42.759567,95.612038 38.187355,95.421997 
	C22.485138,94.769333 22.486427,94.731667 23.027647,110.505684 
	C23.050358,111.167656 23.018829,111.840736 23.128656,112.488976 
	C23.865818,116.839912 26.336269,119.812584 30.626534,120.796761 
	C34.884220,121.773460 38.445034,120.401703 40.974033,116.654106 
	C41.680389,115.607376 42.455730,114.435638 43.494404,113.814514 
	C47.944447,111.153397 49.470879,107.398636 48.006607,101.702415 
z"/>
<path fill="#CFD4E4" opacity="1.000000" stroke="none" 
	d="
M101.380966,159.949127 
	C100.886009,159.649796 100.849297,159.208572 100.619995,159.055130 
	C91.139694,152.710251 90.687698,143.311798 90.811470,133.059814 
	C91.148895,105.110512 90.787315,77.152779 90.653992,48.371204 
	C90.092987,46.027210 89.580673,44.510391 89.068359,42.993568 
	C89.697151,41.256634 90.800636,39.537941 90.868217,37.779438 
	C91.096603,31.836809 90.957550,25.880056 90.967552,19.459799 
	C92.438438,18.320942 93.900734,17.650990 96.116539,16.635817 
	C96.230469,19.186049 96.388077,21.078806 96.388809,22.971624 
	C96.403305,60.606750 96.399170,98.241882 96.399971,135.877014 
	C96.400291,150.953293 98.819275,153.532944 114.138428,155.238983 
	C110.008743,156.806488 105.879066,158.373978 101.380966,159.949127 
z"/>
<path fill="#CBD0E1" opacity="1.000000" stroke="none" 
	d="
M92.264221,177.768738 
	C90.435516,177.246475 88.946243,176.515961 87.390190,175.978897 
	C81.332893,173.888290 77.291313,169.831055 75.132553,163.806351 
	C65.556992,137.082779 55.983990,110.358200 46.323765,83.665215 
	C45.388161,81.079964 43.858467,78.709702 42.286400,76.100830 
	C43.652740,74.396729 45.337223,72.831451 47.603050,70.725983 
	C48.506332,72.949661 49.273968,74.670166 49.912712,76.437248 
	C59.650223,103.376060 69.371185,130.320847 79.095352,157.264481 
	C83.956238,170.733002 86.829613,172.365295 101.955147,169.028473 
	C98.170090,172.506409 95.371529,175.077881 92.264221,177.768738 
z"/>
<path fill="#424456" opacity="1.000000" stroke="none" 
	d="
M151.188812,54.919052 
	C158.966980,53.497536 165.396149,56.368530 168.958878,62.577545 
	C172.471909,68.699905 171.918045,76.304016 166.981827,81.620804 
	C161.206467,87.841446 155.048965,93.707466 149.052689,99.722794 
	C146.520752,102.262764 144.147110,101.918259 141.725586,99.458443 
	C136.584824,94.236359 131.355286,89.101799 126.192184,83.901520 
	C119.053474,76.711380 117.907837,68.058586 123.120728,61.005981 
	C128.500092,53.728153 136.230103,52.651440 145.576172,57.878357 
	C147.322998,56.928905 149.069748,55.979282 151.188812,54.919052 
M155.483734,62.349098 
	C153.614273,63.304092 151.379074,63.886574 149.949783,65.289886 
	C146.752289,68.429291 144.195801,68.220451 141.019409,65.204811 
	C137.111847,61.494976 133.853577,61.544319 130.576202,64.695168 
	C127.420456,67.729095 126.772591,72.634720 129.841034,75.945030 
	C134.783203,81.276764 140.193878,86.174217 145.414566,91.262871 
	C145.934586,91.004700 146.466949,90.881363 146.798569,90.554413 
	C151.173111,86.241417 155.598572,81.975807 159.853104,77.546402 
	C165.420715,71.749947 163.864487,65.525536 155.483734,62.349098 
z"/>
<path fill="#424556" opacity="1.000000" stroke="none" 
	d="
M88.698296,42.901207 
	C89.580673,44.510391 90.092987,46.027210 90.597504,47.852287 
	C86.118912,52.685501 84.965652,58.478230 84.052429,64.470734 
	C83.766914,66.344254 82.712051,68.770905 81.254807,69.572319 
	C80.189194,70.158356 77.808670,68.656929 76.154373,67.811714 
	C71.353569,65.358871 66.759171,62.451366 61.821838,60.332710 
	C57.975742,58.682316 57.315395,57.019997 58.988064,53.222633 
	C61.151157,48.311882 62.514694,43.053741 64.354713,37.993248 
	C64.990242,36.245377 65.649261,33.802258 66.978874,33.212345 
	C68.258720,32.644512 70.523117,33.845730 72.173203,34.644909 
	C77.602623,37.274532 82.949593,40.074383 88.698296,42.901207 
M69.443001,53.877003 
	C71.757896,55.103539 74.072792,56.330070 76.784729,57.766972 
	C77.888054,54.646160 78.852409,51.918411 79.848930,49.099712 
	C76.948509,47.610619 74.484879,46.345772 71.593811,44.861481 
	C70.665497,47.909088 69.857025,50.563263 69.443001,53.877003 
z"/>
<path fill="#424658" opacity="1.000000" stroke="none" 
	d="
M48.122345,102.066940 
	C49.470879,107.398636 47.944447,111.153397 43.494404,113.814514 
	C42.455730,114.435638 41.680389,115.607376 40.974033,116.654106 
	C38.445034,120.401703 34.884220,121.773460 30.626534,120.796761 
	C26.336269,119.812584 23.865818,116.839912 23.128656,112.488976 
	C23.018829,111.840736 23.050358,111.167656 23.027647,110.505684 
	C22.486427,94.731667 22.485138,94.769333 38.187355,95.421997 
	C42.759567,95.612038 46.138920,97.410492 48.122345,102.066940 
M31.105629,109.809601 
	C31.594931,110.674362 32.084232,111.539124 32.503433,112.279991 
	C34.857529,109.505913 36.886219,107.115295 38.905807,104.735405 
	C32.597797,103.013359 31.492508,103.619736 31.105629,109.809601 
z"/>
<path fill="#FA5A7C" opacity="1.000000" stroke="none" 
	d="
M155.846222,62.404457 
	C163.864487,65.525536 165.420715,71.749947 159.853104,77.546402 
	C155.598572,81.975807 151.173111,86.241417 146.798569,90.554413 
	C146.466949,90.881363 145.934586,91.004700 145.414566,91.262871 
	C140.193878,86.174217 134.783203,81.276764 129.841034,75.945030 
	C126.772591,72.634720 127.420456,67.729095 130.576202,64.695168 
	C133.853577,61.544319 137.111847,61.494976 141.019409,65.204811 
	C144.195801,68.220451 146.752289,68.429291 149.949783,65.289886 
	C151.379074,63.886574 153.614273,63.304092 155.846222,62.404457 
z"/>
<path fill="#EFB65D" opacity="1.000000" stroke="none" 
	d="
M69.245773,53.547222 
	C69.857025,50.563263 70.665497,47.909088 71.593811,44.861481 
	C74.484879,46.345772 76.948509,47.610619 79.848930,49.099712 
	C78.852409,51.918411 77.888054,54.646160 76.784729,57.766972 
	C74.072792,56.330070 71.757896,55.103539 69.245773,53.547222 
z"/>
<path fill="#5F5E70" opacity="1.000000" stroke="none" 
	d="
M31.079865,109.424858 
	C31.492508,103.619736 32.597797,103.013359 38.905807,104.735405 
	C36.886219,107.115295 34.857529,109.505913 32.503433,112.279991 
	C32.084232,111.539124 31.594931,110.674362 31.079865,109.424858 
z"/>
</svg>