<svg version="1.1" id="Layer_1" xmlns="http://www.w3.org/2000/svg" xmlns:xlink="http://www.w3.org/1999/xlink" x="0px" y="0px"
	 width="100%" viewBox="0 0 512 512" enable-background="new 0 0 512 512" xml:space="preserve">
<path fill="#000000" opacity="1.000000" stroke="none" 
	d="
M278.000000,513.000000 
	C185.355820,513.000000 93.211639,513.000000 1.033728,513.000000 
	C1.033728,342.397461 1.033728,171.794907 1.033728,1.096182 
	C171.560867,1.096182 342.121796,1.096182 512.841370,1.096182 
	C512.841370,171.666550 512.841370,342.333252 512.841370,513.000000 
	C434.794891,513.000000 356.647430,513.000000 278.000000,513.000000 
M309.747253,266.951324 
	C308.099152,266.375946 306.453369,265.307037 304.802643,265.299408 
	C281.306458,265.190460 257.808258,265.361511 234.313934,265.127258 
	C228.586258,265.070160 222.704758,264.420776 217.183762,262.953430 
	C205.257080,259.783569 195.278519,253.511887 187.688736,243.366257 
	C180.550323,233.824005 176.379852,223.353668 175.536591,211.702133 
	C174.869080,211.482986 174.563416,211.295013 174.257553,211.294708 
	C142.429611,211.263474 110.598785,210.989456 78.774971,211.344025 
	C64.318230,211.505081 51.357563,224.407654 51.296379,238.227768 
	C51.105316,281.387451 50.968269,324.550995 51.374943,367.707703 
	C51.506008,381.616730 61.920738,393.881073 77.868073,394.731262 
	C86.010544,395.165344 94.188759,394.911163 102.350311,395.009918 
	C111.351746,395.118835 117.206047,401.041779 117.219345,410.063782 
	C117.240715,424.561707 117.218529,439.059662 117.237526,453.557587 
	C117.239052,454.722046 117.416443,455.886230 117.524643,457.203033 
	C120.805214,454.458710 123.847313,452.153748 126.616852,449.557983 
	C143.923218,433.337585 161.267517,417.154968 178.363037,400.714203 
	C182.502457,396.733307 186.875183,394.919312 192.550964,394.944519 
	C221.379654,395.072540 250.213013,394.717987 279.037109,395.104004 
	C298.088104,395.359161 310.060730,380.940369 309.878052,364.354858 
	C309.523804,332.196625 309.772186,300.031799 309.747253,266.951324 
M460.122559,218.368240 
	C460.748383,215.404663 461.911255,212.442520 461.919281,209.477264 
	C462.036743,166.153198 462.003845,122.828712 461.983673,79.504341 
	C461.983002,78.032860 461.955139,76.504471 461.579742,75.098801 
	C457.413971,59.499519 445.458801,53.087170 431.799042,53.058586 
	C368.479065,52.926083 305.158630,52.978649 241.838455,53.043137 
	C237.099045,53.047962 232.333435,53.452011 227.626328,54.040794 
	C214.496689,55.683105 205.034363,68.699409 205.020767,79.948784 
	C204.969208,122.606575 205.127075,165.265045 204.934235,207.922028 
	C204.862350,223.827316 218.325089,235.956696 233.082413,235.983627 
	C263.076111,236.038361 293.070190,236.058426 323.063538,235.941345 
	C327.950836,235.922272 331.831604,237.673645 335.308624,240.819321 
	C338.847748,244.021194 342.461823,247.143875 345.920532,250.430222 
	C360.445404,264.231201 374.907623,278.098053 389.440369,291.890686 
	C391.341858,293.695312 393.518982,295.209503 396.000000,297.205353 
	C396.000000,281.841156 396.077209,267.343933 395.974487,252.847961 
	C395.898468,242.117935 402.425842,235.353409 412.648285,235.935684 
	C418.793762,236.285721 424.980103,235.845169 431.139832,236.031921 
	C444.328918,236.431808 453.890900,230.804001 460.122559,218.368240 
z"/>
<path fill="#E31627" opacity="1.000000" stroke="none" 
	d="
M309.759033,267.410522 
	C309.772186,300.031799 309.523804,332.196625 309.878052,364.354858 
	C310.060730,380.940369 298.088104,395.359161 279.037109,395.104004 
	C250.213013,394.717987 221.379654,395.072540 192.550964,394.944519 
	C186.875183,394.919312 182.502457,396.733307 178.363037,400.714203 
	C161.267517,417.154968 143.923218,433.337585 126.616852,449.557983 
	C123.847313,452.153748 120.805214,454.458710 117.524643,457.203033 
	C117.416443,455.886230 117.239052,454.722046 117.237526,453.557587 
	C117.218529,439.059662 117.240715,424.561707 117.219345,410.063782 
	C117.206047,401.041779 111.351746,395.118835 102.350311,395.009918 
	C94.188759,394.911163 86.010544,395.165344 77.868073,394.731262 
	C61.920738,393.881073 51.506008,381.616730 51.374943,367.707703 
	C50.968269,324.550995 51.105316,281.387451 51.296379,238.227768 
	C51.357563,224.407654 64.318230,211.505081 78.774971,211.344025 
	C110.598785,210.989456 142.429611,211.263474 174.257553,211.294708 
	C174.563416,211.295013 174.869080,211.482986 175.536591,211.702133 
	C176.379852,223.353668 180.550323,233.824005 187.688736,243.366257 
	C195.278519,253.511887 205.257080,259.783569 217.183762,262.953430 
	C222.704758,264.420776 228.586258,265.070160 234.313934,265.127258 
	C257.808258,265.361511 281.306458,265.190460 304.802643,265.299408 
	C306.453369,265.307037 308.099152,266.375946 309.759033,267.410522 
M141.156677,294.729553 
	C138.725159,291.107300 135.425659,288.992645 131.044342,288.285339 
	C125.796959,287.438171 119.614792,290.032593 116.566383,294.732727 
	C113.357750,299.679901 113.482140,305.879333 117.262131,310.894470 
	C120.694183,315.447968 125.376572,317.700531 131.134827,316.584686 
	C141.470459,314.581787 145.434219,306.274445 141.156677,294.729553 
M179.521225,315.336792 
	C180.620483,315.653625 181.706436,316.030579 182.821213,316.277405 
	C189.572937,317.772034 195.472763,315.250061 198.324402,309.682922 
	C201.664337,303.162506 200.573196,296.463806 195.379120,291.601868 
	C191.020584,287.522034 183.161926,286.917450 177.888611,290.407227 
	C169.794662,295.763702 168.061920,307.578003 179.521225,315.336792 
M244.398178,288.016602 
	C242.941956,288.272797 241.470703,288.464081 240.032120,288.796600 
	C234.146866,290.156952 230.125259,294.846405 229.184555,301.376862 
	C228.551086,305.774475 232.702881,312.918793 237.227020,315.216125 
	C242.640366,317.964996 249.298721,317.218384 253.375336,313.401306 
	C257.448242,309.587708 258.976471,304.885284 257.846558,299.471039 
	C256.427460,292.671082 251.933426,289.085052 244.398178,288.016602 
z"/>
<path fill="#FFFFFF" opacity="1.000000" stroke="none" 
	d="
M460.054443,218.764908 
	C453.890900,230.804001 444.328918,236.431808 431.139832,236.031921 
	C424.980103,235.845169 418.793762,236.285721 412.648285,235.935684 
	C402.425842,235.353409 395.898468,242.117935 395.974487,252.847961 
	C396.077209,267.343933 396.000000,281.841156 396.000000,297.205353 
	C393.518982,295.209503 391.341858,293.695312 389.440369,291.890686 
	C374.907623,278.098053 360.445404,264.231201 345.920532,250.430222 
	C342.461823,247.143875 338.847748,244.021194 335.308624,240.819321 
	C331.831604,237.673645 327.950836,235.922272 323.063538,235.941345 
	C293.070190,236.058426 263.076111,236.038361 233.082413,235.983627 
	C218.325089,235.956696 204.862350,223.827316 204.934235,207.922028 
	C205.127075,165.265045 204.969208,122.606575 205.020767,79.948784 
	C205.034363,68.699409 214.496689,55.683105 227.626328,54.040794 
	C232.333435,53.452011 237.099045,53.047962 241.838455,53.043137 
	C305.158630,52.978649 368.479065,52.926083 431.799042,53.058586 
	C445.458801,53.087170 457.413971,59.499519 461.579742,75.098801 
	C461.955139,76.504471 461.983002,78.032860 461.983673,79.504341 
	C462.003845,122.828712 462.036743,166.153198 461.919281,209.477264 
	C461.911255,212.442520 460.748383,215.404663 460.054443,218.764908 
M264.986115,104.523712 
	C260.168427,109.843849 259.820496,115.856323 262.651123,122.096809 
	C265.344788,128.035324 270.909241,129.835220 276.696808,129.904984 
	C297.004425,130.149811 317.316772,130.000000 337.627350,130.000000 
	C355.274231,130.000000 372.923492,130.171585 390.567078,129.930496 
	C399.961670,129.802139 406.333099,123.952492 406.034912,113.962173 
	C405.794952,105.922699 399.393768,100.006271 390.496185,100.004044 
	C352.538727,99.994537 314.580475,99.889992 276.625153,100.173820 
	C272.916931,100.201546 269.226837,102.655098 264.986115,104.523712 
M357.500000,187.000000 
	C369.155609,187.000000 380.811188,187.008469 392.466797,186.997070 
	C400.459717,186.989258 405.910278,181.394684 406.000000,173.139832 
	C406.091034,164.764481 400.371826,158.041199 392.778900,158.029160 
	C353.316437,157.966599 313.853729,157.974274 274.391205,158.022705 
	C266.897583,158.031906 260.924652,164.889572 261.000031,173.070312 
	C261.070709,180.740005 267.153595,186.995529 274.577667,186.997345 
	C301.885101,187.004059 329.192566,187.000000 357.500000,187.000000 
z"/>
<path fill="#000000" opacity="1.000000" stroke="none" 
	d="
M141.264648,295.109619 
	C145.434219,306.274445 141.470459,314.581787 131.134827,316.584686 
	C125.376572,317.700531 120.694183,315.447968 117.262131,310.894470 
	C113.482140,305.879333 113.357750,299.679901 116.566383,294.732727 
	C119.614792,290.032593 125.796959,287.438171 131.044342,288.285339 
	C135.425659,288.992645 138.725159,291.107300 141.264648,295.109619 
z"/>
<path fill="#000000" opacity="1.000000" stroke="none" 
	d="
M179.161713,315.189392 
	C168.061920,307.578003 169.794662,295.763702 177.888611,290.407227 
	C183.161926,286.917450 191.020584,287.522034 195.379120,291.601868 
	C200.573196,296.463806 201.664337,303.162506 198.324402,309.682922 
	C195.472763,315.250061 189.572937,317.772034 182.821213,316.277405 
	C181.706436,316.030579 180.620483,315.653625 179.161713,315.189392 
z"/>
<path fill="#000000" opacity="1.000000" stroke="none" 
	d="
M244.803955,288.040283 
	C251.933426,289.085052 256.427460,292.671082 257.846558,299.471039 
	C258.976471,304.885284 257.448242,309.587708 253.375336,313.401306 
	C249.298721,317.218384 242.640366,317.964996 237.227020,315.216125 
	C232.702881,312.918793 228.551086,305.774475 229.184555,301.376862 
	C230.125259,294.846405 234.146866,290.156952 240.032120,288.796600 
	C241.470703,288.464081 242.941956,288.272797 244.803955,288.040283 
z"/>
<path fill="#000000" opacity="1.000000" stroke="none" 
	d="
M265.257233,104.253174 
	C269.226837,102.655098 272.916931,100.201546 276.625153,100.173820 
	C314.580475,99.889992 352.538727,99.994537 390.496185,100.004044 
	C399.393768,100.006271 405.794952,105.922699 406.034912,113.962173 
	C406.333099,123.952492 399.961670,129.802139 390.567078,129.930496 
	C372.923492,130.171585 355.274231,130.000000 337.627350,130.000000 
	C317.316772,130.000000 297.004425,130.149811 276.696808,129.904984 
	C270.909241,129.835220 265.344788,128.035324 262.651123,122.096809 
	C259.820496,115.856323 260.168427,109.843849 265.257233,104.253174 
z"/>
<path fill="#000000" opacity="1.000000" stroke="none" 
	d="
M357.000000,187.000000 
	C329.192566,187.000000 301.885101,187.004059 274.577667,186.997345 
	C267.153595,186.995529 261.070709,180.740005 261.000031,173.070312 
	C260.924652,164.889572 266.897583,158.031906 274.391205,158.022705 
	C313.853729,157.974274 353.316437,157.966599 392.778900,158.029160 
	C400.371826,158.041199 406.091034,164.764481 406.000000,173.139832 
	C405.910278,181.394684 400.459717,186.989258 392.466797,186.997070 
	C380.811188,187.008469 369.155609,187.000000 357.000000,187.000000 
z"/>
</svg>