<svg version="1.1" id="Layer_1" xmlns="http://www.w3.org/2000/svg" xmlns:xlink="http://www.w3.org/1999/xlink" x="0px" y="0px"
	 width="100%" viewBox="0 0 1671 1671" enable-background="new 0 0 1671 1671" xml:space="preserve">
<path fill="#000000" opacity="1.000000" stroke="none" 
	d="
M1672.000000,594.000000 
	C1672.000000,953.666565 1672.000000,1312.833130 1672.000000,1671.999756 
	C1115.000244,1671.999756 558.000549,1671.999756 1.000615,1671.999878 
	C1.000410,1115.000488 1.000410,558.000854 1.000205,1.000988 
	C557.999390,1.000659 1114.998779,1.000659 1671.999023,1.000329 
	C1672.000000,198.500000 1672.000000,396.000000 1672.000000,594.000000 
M437.061646,129.544525 
	C384.529083,159.027710 336.176849,194.361206 291.675629,234.853607 
	C226.222305,294.410706 171.471603,362.624664 128.283310,439.964874 
	C62.650787,557.497498 28.673340,683.703369 25.321915,818.166443 
	C24.074074,868.231262 27.801216,917.997803 35.803471,967.461487 
	C48.301971,1044.717407 71.630486,1118.557251 105.675461,1188.965454 
	C147.795700,1276.074341 203.922623,1353.081543 273.570282,1420.264404 
	C309.284027,1454.714355 347.649261,1485.846680 389.074127,1513.161011 
	C518.836609,1598.723022 661.585571,1643.135620 816.814575,1647.697510 
	C857.174377,1648.883545 897.421448,1646.696289 937.484436,1641.747681 
	C991.815125,1635.036621 1044.962769,1622.987305 1096.819214,1605.388306 
	C1194.772583,1572.144775 1283.149292,1522.010132 1362.009399,1455.054077 
	C1413.976929,1410.931152 1459.881470,1361.197510 1499.213989,1305.567017 
	C1579.023193,1192.687988 1627.200317,1067.558228 1643.212646,930.145874 
	C1648.701416,883.043823 1650.021973,835.851624 1647.286865,788.490601 
	C1644.707886,743.834961 1638.661011,699.687988 1628.685791,656.125916 
	C1602.090576,539.984192 1552.516846,434.637146 1479.605835,340.313141 
	C1429.399902,275.362274 1370.861206,219.064163 1303.677979,171.959396 
	C1175.708984,82.235321 1033.405396,33.694321 877.422241,25.293728 
	C839.281677,23.239641 801.165344,24.303690 763.092468,27.727007 
	C719.891602,31.611414 677.321045,38.951988 635.306396,49.633194 
	C565.871460,67.285347 500.064270,93.959816 437.061646,129.544525 
z"/>
<path fill="#E51627" opacity="1.000000" stroke="none" 
	d="
M437.375885,129.352753 
	C500.064270,93.959816 565.871460,67.285347 635.306396,49.633194 
	C677.321045,38.951988 719.891602,31.611414 763.092468,27.727007 
	C801.165344,24.303690 839.281677,23.239641 877.422241,25.293728 
	C1033.405396,33.694321 1175.708984,82.235321 1303.677979,171.959396 
	C1370.861206,219.064163 1429.399902,275.362274 1479.605835,340.313141 
	C1552.516846,434.637146 1602.090576,539.984192 1628.685791,656.125916 
	C1638.661011,699.687988 1644.707886,743.834961 1647.286865,788.490601 
	C1650.021973,835.851624 1648.701416,883.043823 1643.212646,930.145874 
	C1627.200317,1067.558228 1579.023193,1192.687988 1499.213989,1305.567017 
	C1459.881470,1361.197510 1413.976929,1410.931152 1362.009399,1455.054077 
	C1283.149292,1522.010132 1194.772583,1572.144775 1096.819214,1605.388306 
	C1044.962769,1622.987305 991.815125,1635.036621 937.484436,1641.747681 
	C897.421448,1646.696289 857.174377,1648.883545 816.814575,1647.697510 
	C661.585571,1643.135620 518.836609,1598.723022 389.074127,1513.161011 
	C347.649261,1485.846680 309.284027,1454.714355 273.570282,1420.264404 
	C203.922623,1353.081543 147.795700,1276.074341 105.675461,1188.965454 
	C71.630486,1118.557251 48.301971,1044.717407 35.803471,967.461487 
	C27.801216,917.997803 24.074074,868.231262 25.321915,818.166443 
	C28.673340,683.703369 62.650787,557.497498 128.283310,439.964874 
	C171.471603,362.624664 226.222305,294.410706 291.675629,234.853607 
	C336.176849,194.361206 384.529083,159.027710 437.375885,129.352753 
M942.264404,211.219391 
	C917.950195,208.559433 893.695007,204.860382 869.308411,203.473724 
	C828.838379,201.172531 788.434814,203.021378 748.212463,208.758133 
	C683.453552,217.994446 621.505920,236.508453 562.653564,264.939117 
	C476.403015,306.605469 403.142944,364.836731 343.069855,439.496979 
	C290.871338,504.370514 252.996887,576.791077 229.298920,656.624084 
	C215.263245,703.907043 206.989014,752.202148 204.260376,801.416016 
	C202.589478,831.552734 203.239227,861.672729 205.849976,891.773621 
	C209.051712,928.688354 215.527496,964.992004 225.097626,1000.755493 
	C240.690414,1059.025513 264.283783,1113.916504 295.687195,1165.377808 
	C330.311890,1222.118164 372.825562,1272.226685 423.173523,1315.705933 
	C473.632202,1359.280640 529.530823,1394.100220 590.901001,1420.008667 
	C664.873962,1451.237549 742.113281,1467.632324 822.394592,1469.528198 
	C861.957458,1470.462524 901.256104,1467.605347 940.320068,1461.191040 
	C1010.269592,1449.705322 1076.416504,1427.034058 1138.663940,1393.263184 
	C1197.526855,1361.328613 1250.020752,1320.960449 1296.194092,1272.366333 
	C1334.750610,1231.788330 1367.492432,1186.986450 1394.106934,1137.798096 
	C1439.409668,1054.071045 1464.568726,964.531738 1469.679077,869.493591 
	C1471.883423,828.499023 1470.037231,787.614258 1464.224243,746.899292 
	C1455.002197,682.306519 1436.470093,620.533569 1408.135498,561.825317 
	C1366.421021,475.394043 1307.934448,402.139343 1233.222046,341.885101 
	C1195.070435,311.116547 1153.801880,285.216431 1109.601807,264.100220 
	C1056.593506,238.775925 1001.009094,221.391479 942.264404,211.219391 
z"/>
<path fill="#130B0C" opacity="1.000000" stroke="none" 
	d="
M942.690918,211.306152 
	C1001.009094,221.391479 1056.593506,238.775925 1109.601807,264.100220 
	C1153.801880,285.216431 1195.070435,311.116547 1233.222046,341.885101 
	C1307.934448,402.139343 1366.421021,475.394043 1408.135498,561.825317 
	C1436.470093,620.533569 1455.002197,682.306519 1464.224243,746.899292 
	C1470.037231,787.614258 1471.883423,828.499023 1469.679077,869.493591 
	C1464.568726,964.531738 1439.409668,1054.071045 1394.106934,1137.798096 
	C1367.492432,1186.986450 1334.750610,1231.788330 1296.194092,1272.366333 
	C1250.020752,1320.960449 1197.526855,1361.328613 1138.663940,1393.263184 
	C1076.416504,1427.034058 1010.269592,1449.705322 940.320068,1461.191040 
	C901.256104,1467.605347 861.957458,1470.462524 822.394592,1469.528198 
	C742.113281,1467.632324 664.873962,1451.237549 590.901001,1420.008667 
	C529.530823,1394.100220 473.632202,1359.280640 423.173523,1315.705933 
	C372.825562,1272.226685 330.311890,1222.118164 295.687195,1165.377808 
	C264.283783,1113.916504 240.690414,1059.025513 225.097626,1000.755493 
	C215.527496,964.992004 209.051712,928.688354 205.849976,891.773621 
	C203.239227,861.672729 202.589478,831.552734 204.260376,801.416016 
	C206.989014,752.202148 215.263245,703.907043 229.298920,656.624084 
	C252.996887,576.791077 290.871338,504.370514 343.069855,439.496979 
	C403.142944,364.836731 476.403015,306.605469 562.653564,264.939117 
	C621.505920,236.508453 683.453552,217.994446 748.212463,208.758133 
	C788.434814,203.021378 828.838379,201.172531 869.308411,203.473724 
	C893.695007,204.860382 917.950195,208.559433 942.690918,211.306152 
M671.477295,227.924271 
	C601.638428,246.746964 537.089050,276.979431 477.738464,318.238464 
	C404.228180,369.341003 344.019470,433.156433 297.713318,509.734222 
	C246.635361,594.203247 216.843979,685.768921 208.848557,784.287354 
	C203.775421,846.797729 207.617340,908.714172 220.994690,970.026184 
	C234.228058,1030.678345 255.812805,1088.167236 286.063812,1142.375854 
	C325.975586,1213.895874 377.837311,1275.373901 441.528473,1326.859863 
	C495.804443,1370.734863 555.766724,1404.723267 621.319702,1428.509399 
	C693.499146,1454.700073 768.075256,1467.442017 844.975159,1466.308960 
	C887.575928,1465.681152 929.673767,1461.097412 971.288940,1451.971924 
	C1054.010742,1433.832764 1129.994141,1400.408691 1199.320435,1351.766602 
	C1254.336426,1313.164917 1301.837158,1266.796265 1342.093994,1213.080811 
	C1378.404297,1164.631104 1407.134888,1111.934937 1428.087158,1055.093140 
	C1449.923706,995.852661 1462.793213,934.734070 1466.223877,871.632690 
	C1469.878174,804.419373 1463.406982,738.256775 1445.929077,673.244141 
	C1421.460693,582.229370 1378.716919,500.730072 1317.835449,428.784943 
	C1279.067261,382.971680 1234.631226,343.486053 1184.590454,310.352631 
	C1124.454468,270.534851 1059.365112,241.891281 989.390930,224.429428 
	C951.343445,214.934784 912.737915,209.034805 873.554810,206.900452 
	C837.371582,204.929504 801.299316,205.820511 765.276428,209.876862 
	C733.797485,213.421555 702.818909,219.421295 671.477295,227.924271 
z"/>
<path fill="#FFFFFF" opacity="1.000000" stroke="none" 
	d="
M671.869507,227.811279 
	C702.818909,219.421295 733.797485,213.421555 765.276428,209.876862 
	C801.299316,205.820511 837.371582,204.929504 873.554810,206.900452 
	C912.737915,209.034805 951.343445,214.934784 989.390930,224.429428 
	C1059.365112,241.891281 1124.454468,270.534851 1184.590454,310.352631 
	C1234.631226,343.486053 1279.067261,382.971680 1317.835449,428.784943 
	C1378.716919,500.730072 1421.460693,582.229370 1445.929077,673.244141 
	C1463.406982,738.256775 1469.878174,804.419373 1466.223877,871.632690 
	C1462.793213,934.734070 1449.923706,995.852661 1428.087158,1055.093140 
	C1407.134888,1111.934937 1378.404297,1164.631104 1342.093994,1213.080811 
	C1301.837158,1266.796265 1254.336426,1313.164917 1199.320435,1351.766602 
	C1129.994141,1400.408691 1054.010742,1433.832764 971.288940,1451.971924 
	C929.673767,1461.097412 887.575928,1465.681152 844.975159,1466.308960 
	C768.075256,1467.442017 693.499146,1454.700073 621.319702,1428.509399 
	C555.766724,1404.723267 495.804443,1370.734863 441.528473,1326.859863 
	C377.837311,1275.373901 325.975586,1213.895874 286.063812,1142.375854 
	C255.812805,1088.167236 234.228058,1030.678345 220.994690,970.026184 
	C207.617340,908.714172 203.775421,846.797729 208.848557,784.287354 
	C216.843979,685.768921 246.635361,594.203247 297.713318,509.734222 
	C344.019470,433.156433 404.228180,369.341003 477.738464,318.238464 
	C537.089050,276.979431 601.638428,246.746964 671.869507,227.811279 
M1001.016174,664.460510 
	C986.386230,649.613098 969.473938,637.728699 951.348999,627.725403 
	C923.924011,612.589294 894.495850,603.283813 863.294128,599.868896 
	C820.775452,595.215271 779.876465,601.296082 740.740723,618.663147 
	C709.185669,632.666321 681.900330,652.499878 658.991577,678.408875 
	C640.682068,699.116394 626.254150,722.176208 615.999023,747.816223 
	C605.732788,773.484070 600.120056,800.208191 599.085449,827.807983 
	C598.751343,836.721008 599.127991,845.733765 600.081055,854.604065 
	C601.372803,866.625916 602.785278,878.724121 605.455383,890.492432 
	C614.566833,930.650452 633.476440,965.933533 661.036621,996.376404 
	C679.035645,1016.258179 700.080872,1032.548706 723.713684,1045.411987 
	C755.136047,1062.515137 788.896790,1071.541138 824.399170,1073.887451 
	C843.633423,1075.158569 862.870667,1073.550903 881.780090,1069.649048 
	C922.513733,1061.243896 959.034119,1044.171631 990.789307,1016.929077 
	C1005.048035,1004.696655 1017.981201,991.387146 1029.003784,976.247009 
	C1053.826904,942.151428 1068.550415,904.097290 1073.227783,862.160645 
	C1075.856689,838.591431 1074.556763,815.306885 1070.325562,791.921448 
	C1065.232300,763.772034 1055.039185,737.725586 1040.510132,713.375366 
	C1029.832153,695.479309 1017.005249,679.089050 1001.016174,664.460510 
z"/>
<path fill="#0E0707" opacity="1.000000" stroke="none" 
	d="
M1001.255371,664.718506 
	C1017.005249,679.089050 1029.832153,695.479309 1040.510132,713.375366 
	C1055.039185,737.725586 1065.232300,763.772034 1070.325562,791.921448 
	C1074.556763,815.306885 1075.856689,838.591431 1073.227783,862.160645 
	C1068.550415,904.097290 1053.826904,942.151428 1029.003784,976.247009 
	C1017.981201,991.387146 1005.048035,1004.696655 990.789307,1016.929077 
	C959.034119,1044.171631 922.513733,1061.243896 881.780090,1069.649048 
	C862.870667,1073.550903 843.633423,1075.158569 824.399170,1073.887451 
	C788.896790,1071.541138 755.136047,1062.515137 723.713684,1045.411987 
	C700.080872,1032.548706 679.035645,1016.258179 661.036621,996.376404 
	C633.476440,965.933533 614.566833,930.650452 605.455383,890.492432 
	C602.785278,878.724121 601.372803,866.625916 600.081055,854.604065 
	C599.127991,845.733765 598.751343,836.721008 599.085449,827.807983 
	C600.120056,800.208191 605.732788,773.484070 615.999023,747.816223 
	C626.254150,722.176208 640.682068,699.116394 658.991577,678.408875 
	C681.900330,652.499878 709.185669,632.666321 740.740723,618.663147 
	C779.876465,601.296082 820.775452,595.215271 863.294128,599.868896 
	C894.495850,603.283813 923.924011,612.589294 951.348999,627.725403 
	C969.473938,637.728699 986.386230,649.613098 1001.255371,664.718506 
M1067.149780,791.459473 
	C1064.798584,782.387817 1062.888672,773.173950 1060.020386,764.268860 
	C1046.977417,723.774963 1024.563721,689.397217 992.679199,661.076172 
	C973.930176,644.422485 953.169983,631.174011 930.296631,621.040710 
	C905.418640,610.019470 879.340149,603.745422 852.280273,602.152161 
	C825.892639,600.598389 799.773560,602.806519 774.150513,610.012024 
	C729.465515,622.577881 691.793701,646.448486 660.957153,680.825928 
	C642.312561,701.611450 627.998535,725.301270 617.970581,751.541748 
	C610.434998,771.260315 605.317932,791.579346 603.303284,812.476685 
	C602.036865,825.613220 602.460449,838.996155 603.164001,852.213318 
	C603.758057,863.373352 604.965576,874.653076 607.426392,885.534973 
	C618.244995,933.375793 641.125732,974.461670 677.278076,1007.986694 
	C691.790039,1021.444092 707.550476,1033.127686 724.961487,1042.412964 
	C764.590820,1063.547363 806.780212,1073.750000 851.786194,1069.956299 
	C865.929810,1068.764282 880.222290,1067.059692 893.946167,1063.602783 
	C932.286072,1053.945557 966.321228,1035.601807 995.506165,1008.875732 
	C1029.521606,977.725952 1052.372559,939.632935 1064.051147,894.963867 
	C1069.242432,875.107605 1072.003296,854.885986 1070.873413,834.350159 
	C1070.101440,820.317261 1068.432495,806.333618 1067.149780,791.459473 
z"/>
<path fill="#E51627" opacity="1.000000" stroke="none" 
	d="
M1067.157104,791.893738 
	C1068.432495,806.333618 1070.101440,820.317261 1070.873413,834.350159 
	C1072.003296,854.885986 1069.242432,875.107605 1064.051147,894.963867 
	C1052.372559,939.632935 1029.521606,977.725952 995.506165,1008.875732 
	C966.321228,1035.601807 932.286072,1053.945557 893.946167,1063.602783 
	C880.222290,1067.059692 865.929810,1068.764282 851.786194,1069.956299 
	C806.780212,1073.750000 764.590820,1063.547363 724.961487,1042.412964 
	C707.550476,1033.127686 691.790039,1021.444092 677.278076,1007.986694 
	C641.125732,974.461670 618.244995,933.375793 607.426392,885.534973 
	C604.965576,874.653076 603.758057,863.373352 603.164001,852.213318 
	C602.460449,838.996155 602.036865,825.613220 603.303284,812.476685 
	C605.317932,791.579346 610.434998,771.260315 617.970581,751.541748 
	C627.998535,725.301270 642.312561,701.611450 660.957153,680.825928 
	C691.793701,646.448486 729.465515,622.577881 774.150513,610.012024 
	C799.773560,602.806519 825.892639,600.598389 852.280273,602.152161 
	C879.340149,603.745422 905.418640,610.019470 930.296631,621.040710 
	C953.169983,631.174011 973.930176,644.422485 992.679199,661.076172 
	C1024.563721,689.397217 1046.977417,723.774963 1060.020386,764.268860 
	C1062.888672,773.173950 1064.798584,782.387817 1067.157104,791.893738 
z"/>
</svg>